<svg width="38" height="38" version="1.1" viewBox="0 0 9.9218747 10.120313" xmlns="http://www.w3.org/2000/svg">
 <path d="m3 2.3h-1.1l-1.9 1.9v0.37l1.8 1.9h0.46v-1.6l0.33-0.33v-1.8z" style="fill:#333"/>
 <path d="m1.8 7.2-1.1 1.1 1.9 1.9 0.4-0.4v-0.26l0.79-0.79h2.4l0.79 0.79v0.26l0.4 0.4 1.9-1.9-1.1-1.1z" style="fill:#333"/>
 <path d="m4.1 0-0.4 0.4 0.86 0.86-1.8 1.8 0.93 0.86v-0.93l0.4-0.4 0.46 0.46h0.79l0.46-0.46 0.4 0.4v0.93l0.93-0.86-1.8-1.8 0.86-0.86-0.4-0.4-0.86 0.86z" style="fill:#0ff"/>
 <path d="m6.9 2.3h1.1l1.9 1.9v0.37l-1.8 1.9h-0.46v-1.6l-0.33-0.33v-1.8z" style="fill:#333"/>
</svg>
