<svg
  version="1.1"
  viewBox="0 0 7.9375001 7.4083332"
  height="28"
  width="30"
>
  <g>
    <path
      d="M 6.35,6.7384163 6.085417,7.0030003 H 6.614583 Z"
    />
    <path
      d="M 1.5875,6.7384163 1.3229167,7.0030003 H 1.8520833 Z"
    />
    <path
      d="M 2.9104166,0.91758341 H 1.5875 L 0,2.5050834 v 0.2645833 l 1.5875,1.5875 H 1.8520833 V 3.0342501 l 0.79375,-0.79375 V 1.1821667 Z"
      />
    <path
      d="M 5.0270833,0.9175834 H 6.35 l 1.5875,1.5875 V 2.7696667 L 6.35,4.3571667 H 6.0854167 V 3.0342501 l -0.79375,-0.79375 V 1.1821667 Z"
    />
    <path
      d="m 3.1750003,2.2405 0.264583,0.2645834 h 1.058334 L 4.7625003,2.2405 4.4979173,1.9759167 4.7625003,1.7113334 H 4.2333333 L 3.9687503,1.9759167 3.7041673,1.7113334 h -0.529167 l 0.264583,0.2645833 z"/>
    <path
      d="M 1.5875,4.62175 1.8520833,4.3571667 2.1166666,4.62175 H 5.8208333 L 6.0854166,4.3571667 6.3499999,4.62175 H 6.8791666 L 7.6729166,5.4155 6.3499999,6.7384167 6.0854166,6.4738333 V 6.20925 L 5.5562499,5.6800834 H 2.38125 L 1.8520833,6.20925 V 6.4738333 L 1.5875,6.7384167 0.2645833,5.4155 1.0583333,4.62175 Z"
    />
    <path
      d="M 3.175,2.2405001 2.6458333,1.7113334 3.7041667,0.6530001 2.6458333,-0.4053332 H 3.175 l 0.79375,0.79375 0.7937499,-0.79375 H 5.2916666 L 4.2333333,0.6530001 5.2916666,1.7113334 4.7624999,2.2405001 V 1.7113334 L 4.4979166,1.4467501 4.2333333,1.7113334 H 3.7041667 L 3.4395833,1.4467501 3.175,1.7113334 Z"
    />
  </g>
</svg>
