<svg width="68.5" height="25.5" version="1.1" viewBox="0 0 18.1 6.7" xmlns="http://www.w3.org/2000/svg">
  <path d="M 18.123959,5.55625 V 3.7041666 c 0,-0.5291667 -0.529167,-0.5291667 -0.529167,-0.5291667 H 15.345834 V 5.55625 H 15.875 V 3.7041666 h 1.719792 V 5.55625 Z" />
  <path d="m 12.832292,6.746875 c 0,-0.52917 0.529167,-0.5291667 0.529167,-0.5291667 h 1.058333 V 5.55625 l -2.248958,0 c 0,0 -0.529167,0 -0.529167,-0.5291667 l 3.5e-5,-1.3229167 c 0,-0.5291667 0.529132,-0.5291667 0.529132,-0.5291667 l 2.778125,-4.9e-6 v 3.0427084 c 0,0.5291716 -0.529167,0.5291667 -0.529167,0.5291667 z m -0.661458,-1.7197917 2.248958,0 V 3.7041666 h -1.984375 c -0.264583,0 -0.264583,0.2645833 -0.264583,0.2645833 z" />
  <path d="m 6.6145835,3.4395832 0,2.1166668 -2.3812501,0 c -0.5291666,0 -0.5291666,-0.5291667 -0.5291666,-0.5291667 V 3.7041666 c 0,0 0,-0.5291667 0.5291666,-0.5291667 h 2.1166668 c 0.2645833,0 0.2645833,0.2645833 0.2645833,0.2645833 z M 4.2333334,3.7041666 v 1.3229167 h 1.5875001 c 0.264583,0 0.2645833,-0.2645834 0.2645833,-0.2645834 V 3.7041666 Z" />
  <path d="m 7.5406252,3.1749999 c 0,0 -0.5291667,-3.3e-6 -0.5291667,0.5291667 v 0.9260417 h 2.7781251 v 0.1322916 c 0,0 6e-7,0.2645834 -0.2645834,0.2645834 H 7.0114585 v 0.2645833 c 0,0 0,0.2645834 0.2645834,0.2645834 h 2.5135417 c 0,0 0.5291664,3.3e-6 0.5291664,-0.5291667 v -0.396875 c 0,0 0,-0.5291667 -0.5291664,-0.5291667 H 7.5406252 v -0.396875 h 0.9260417 c 0,0 0.5312327,-0.002 0.5291667,-0.5291667 z"
     style="fill:#333333;fill-opacity:1;stroke:none;stroke-width:0.26458332" />
  <path d="m 2.7781251,0.34395817 0,2.83104173 L 0,5.0270833 v 0.2645833 c 0,0 -6.6e-7,0.2645834 0.26458334,0.2645834 H 3.3072917 V -1.7e-7 Z m -4.7e-6,3.36020843 v 1.0583333 c 0,0 0,0.2645834 -0.2645834,0.2645834 l -1.71285632,-8.3e-6 z" />
  <path d="m 11.244792,3.1749999 c 0,0 -0.529167,0 -0.529167,0.5291667 l 0.0069,1.3226684 c 0,0 -0.0069,0.529415 0.522267,0.529415 h 2.38125 V 5.2916666 c 0,-0.2645833 -0.264583,-0.2645833 -0.264583,-0.2645833 H 11.641667 L 13.626042,3.7041666 V 3.4395832 c 0,0 0,-0.2645833 -0.264583,-0.2645833 z m 1.5875,0.5291667 -1.5875,1.0583333 3.5e-5,-0.79375 c 0,0 -3.5e-5,-0.2645833 0.264548,-0.2645833 z" />
  <path d="m 11.244792,5.55625 -0.529167,0 V 3.7041666 c 0,-0.52917 0.52917,-0.5291667 0.52917,-0.5291667 z" />
  <path d="M 0.26458334,5.55625 C 0,5.55625 0,5.2916666 0,5.2916666 v -1.5875 c 0,0 0,-0.5291667 0.52916668,-0.5291667 l 1.45520842,0 c 0,0.5291667 -0.5291667,0.5291667 -0.5291667,0.5291667 l -0.66145838,0 c -0.264583,0 -0.26458334,0.2645833 -0.26458334,0.2645833 v 0.79375 c 0,0 3.4e-7,0.2645834 0.26458334,0.2645834 H 3.0427084 c 0,0 0.2645834,-6.7e-6 0.2645834,0.2645833 l -10e-8,0.2645834 z" />
  <path d="M 9.7895836,0.34395817 V 3.1749999 L 7.0114585,5.0270833 v 0.2645833 c 0,0 4e-7,0.2645834 0.2645834,0.2645834 H 10.31875 V -1.7e-7 Z m 0,3.36020843 v 1.0583333 c 0,0 6e-7,0.2645834 -0.2645834,0.2645834 H 7.8052085 Z" />
  <path d="m 4.2333334,3.1749999 c -0.529167,0 -0.5291666,0.5291667 -0.5291666,0.5291667 v 1.3229167 c 0,0 -4e-7,0.5291667 0.5291666,0.5291667 H 6.6145835 V 5.2916666 c 0,-0.2645833 -0.2645833,-0.2645833 -0.2645833,-0.2645833 l -1.7197917,0 1.984375,-1.3229167 V 3.4395832 c 0,0 2e-7,-0.2650695 -0.2645833,-0.2645833 z M 5.8208335,3.7041666 4.2333334,4.7624999 v -0.79375 c 0,0 0,-0.2645833 0.2645834,-0.2645833 0,0 0.8555025,-5.215e-4 1.3229167,0 z" />
</svg>
