<svg width="68.5" height="25.5" version="1.1" viewBox="0 0 18.1 6.7" xmlns="http://www.w3.org/2000/svg">
 <path d="m18.12 5.556v-1.852c0-.5292-.5292-.5292-.5292-.5292h-2.249v2.381h.5292v-1.852h1.72v1.852z"/>
 <path d="m12.83 6.747c0-.5292.5292-.5292.5292-.5292h1.058v-.6615h-2.249s-.5292 0-.5292-.5292l3.5e-5-1.323c0-.5292.5291-.5292.5291-.5292l2.778-4.9e-6v3.043c0 .5292-.5292.5292-.5292.5292zm-.6615-1.72h2.249v-1.323h-1.984c-.2646 0-.2646.2646-.2646.2646z"/>
 <path d="m6.615 3.44v2.117h-2.381c-.5292 0-.5292-.5292-.5292-.5292v-1.323s0-.5292.5292-.5292h2.117c.2646 0 .2646.2646.2646.2646zm-2.381.2646v1.323h1.588c.2646 0 .2646-.2646.2646-.2646v-1.058z"/>
 <path d="m7.541 3.175s-.5292-3.3e-6-.5292.5292v.926h2.778v.1323s6e-7.2646-.2646.2646h-2.514v.2646s0 .2646.2646.2646h2.514s.5292 3.3e-6.5292-.5292v-.3969s0-.5292-.5292-.5292h-2.249v-.3969h.926s.5312-.002.5292-.5292z" style="fill:#333"/>
 <path d="m2.778.344v2.831l-2.778 1.852v.2646s-6.6e-7.2646.2646.2646h3.043v-5.556zm-4.7e-6 3.36v1.058s0 .2646-.2646.2646l-1.713-8.3e-6z"/>
 <path d="m11.24 3.175s-.5292 0-.5292.5292l.0069 1.323s-.0069.5294.5223.5294h2.381v-.2646c0-.2646-.2646-.2646-.2646-.2646h-1.72l1.984-1.323v-.2646s0-.2646-.2646-.2646zm1.588.5292-1.588 1.058 3.5e-5-.7938s-3.5e-5-.2646.2645-.2646z" style="fill:#0ff"/>
 <path d="m11.24 5.556h-.5292v-1.852c0-.5292.5292-.5292.5292-.5292z"/>
 <path d="m.2646 5.556c-.2646 0-.2646-.2646-.2646-.2646v-1.588s0-.5292.5292-.5292h1.455c0 .5292-.5292.5292-.5292.5292h-.6615c-.2646 0-.2646.2646-.2646.2646v.7938s3.4e-7.2646.2646.2646h2.249s.2646-6.7e-6.2646.2646l-1e-7.2646z" style="fill:#0ff"/>
 <path d="m9.79.344v2.831l-2.778 1.852v.2646s4e-7.2646.2646.2646h3.043v-5.556zm0 3.36v1.058s6e-7.2646-.2646.2646h-1.72z"/>
 <path d="m4.233 3.175c-.5292 0-.5292.5292-.5292.5292v1.323s-4e-7.5292.5292.5292h2.381v-.2646c0-.2646-.2646-.2646-.2646-.2646h-1.72l1.984-1.323v-.2646s2e-7-.2651-.2646-.2646zm1.588.5292-1.588 1.058v-.7938s0-.2646.2646-.2646c0 0 .8555-.0005215 1.323 0z" style="fill:#0ff"/>
</svg>
